<!-- Generated by IcoMoon.io -->
<svg version="1.1" xmlns="http://www.w3.org/2000/svg" width="1024" height="1024" viewBox="0 0 1024 1024">
<title></title>
<g id="icomoon-ignore">
</g>
<path fill="#000" d="M853.333 640v170.667c0 5.845-1.152 11.349-3.2 16.299-2.133 5.205-5.333 9.899-9.301 13.867s-8.661 7.125-13.867 9.301c-4.949 2.048-10.453 3.2-16.299 3.2h-597.333c-5.845 0-11.349-1.152-16.299-3.2-5.205-2.133-9.899-5.333-13.867-9.301s-7.125-8.661-9.301-13.867c-2.048-4.949-3.2-10.453-3.2-16.299v-170.667c0-23.552-19.115-42.667-42.667-42.667s-42.667 19.115-42.667 42.667v170.667c0 17.28 3.456 33.835 9.728 48.981 6.485 15.701 16 29.781 27.776 41.557s25.856 21.291 41.557 27.776c15.104 6.229 31.659 9.685 48.939 9.685h597.333c17.28 0 33.835-3.456 48.981-9.728 15.701-6.485 29.781-16 41.557-27.776s21.291-25.856 27.776-41.557c6.229-15.104 9.685-31.659 9.685-48.939v-170.667c0-23.552-19.115-42.667-42.667-42.667s-42.667 19.115-42.667 42.667zM554.667 537.003v-409.003c0-23.552-19.115-42.667-42.667-42.667s-42.667 19.115-42.667 42.667v409.003l-140.501-140.501c-16.683-16.683-43.691-16.683-60.331 0s-16.683 43.691 0 60.331l213.333 213.333c0.085 0.085 0.171 0.171 0.256 0.256 4.053 3.968 8.661 6.955 13.568 9.003 5.12 2.133 10.624 3.2 16.085 3.243 0.171 0 0.341 0 0.469 0 5.461-0.043 10.965-1.109 16.085-3.243 5.035-2.091 9.728-5.163 13.824-9.259l213.333-213.333c16.683-16.683 16.683-43.691 0-60.331s-43.691-16.683-60.331 0z"></path>
</svg>
